<svg width="33" height="32" viewBox="0 0 33 32" fill="none" xmlns="http://www.w3.org/2000/svg">
<rect x="0.666748" width="32" height="32" rx="16" fill="#FF4D4F"/>
<path d="M18.4167 6C14.4387 8.4558 14.9167 15.375 14.9167 15.375C14.9167 15.375 13.1667 14.75 13.1667 11.9375C11.0789 13.2346 9.66675 15.7278 9.66675 18.5C9.66675 22.6421 12.8008 26 16.6667 26C20.5327 26 23.6667 22.6421 23.6667 18.5C23.6667 12.4063 18.4167 11.1562 18.4167 6ZM17.2816 23.4157C15.875 23.7915 14.4503 22.8744 14.0996 21.3672C13.7489 19.8601 14.6048 18.3336 16.0115 17.9578C19.4076 17.0506 19.8332 15.0045 19.8332 15.0045C19.8332 15.0045 21.5267 22.2817 17.2816 23.4157Z" fill="white"/>
</svg>
