<svg width="48" height="48" viewBox="0 0 48 48" fill="none" xmlns="http://www.w3.org/2000/svg">
<path d="M0 24C0 10.7452 10.7452 0 24 0C37.2548 0 48 10.7452 48 24C48 37.2548 37.2548 48 24 48C10.7452 48 0 37.2548 0 24Z" fill="#F5F5FF"/>
<path d="M30.1644 15C30.6947 15 31.1332 15.1838 31.4799 15.5514C31.8266 15.9189 32 16.3946 32 16.9784V30.6973C32 31.2595 31.8266 31.7351 31.4799 32.1243C31.1332 32.4919 30.6947 32.6757 30.1644 32.6757C29.6342 32.6757 29.1957 32.4919 28.8489 32.1243C28.5226 31.7568 28.3493 31.2919 28.3289 30.7297C27.819 31.3568 27.1256 31.8973 26.2486 32.3514C25.392 32.7838 24.4844 33 23.5258 33C22.1185 33 20.8438 32.6216 19.7017 31.8649C18.5596 31.0865 17.652 30.0162 16.979 28.6541C16.3263 27.2919 16 25.7459 16 24.0162C16 22.2865 16.3263 20.7405 16.979 19.3784C17.6316 17.9946 18.5188 16.9243 19.6405 16.1676C20.7827 15.3892 22.037 15 23.4034 15C24.3824 15 25.3002 15.1946 26.1568 15.5838C27.0134 15.9514 27.7374 16.427 28.3289 17.0108V16.9784C28.3289 16.4162 28.5022 15.9514 28.8489 15.5838C29.1957 15.1946 29.6342 15 30.1644 15ZM23.9847 29.4324C25.3104 29.4324 26.3913 28.9243 27.2275 27.9081C28.0637 26.8703 28.4818 25.573 28.4818 24.0162C28.4818 22.4595 28.0637 21.1622 27.2275 20.1243C26.3913 19.0865 25.3104 18.5676 23.9847 18.5676C22.6794 18.5676 21.6087 19.0865 20.7725 20.1243C19.9363 21.1622 19.5182 22.4595 19.5182 24.0162C19.5182 25.573 19.9261 26.8703 20.7419 27.9081C21.5781 28.9243 22.659 29.4324 23.9847 29.4324Z" fill="#5243C2"/>
</svg>
