<svg width="19" height="15" viewBox="0 0 19 15" fill="none" xmlns="http://www.w3.org/2000/svg">
<path d="M3.33331 10.4999V5.08325C3.33331 4.08869 3.7284 3.13486 4.43166 2.4316C5.13492 1.72834 6.08875 1.33325 7.08331 1.33325C8.07787 1.33325 9.0317 1.72834 9.73496 2.4316C10.4382 3.13486 10.8333 4.08869 10.8333 5.08325V10.9166C10.8333 11.4691 11.0528 11.999 11.4435 12.3897C11.8342 12.7804 12.3641 12.9999 12.9166 12.9999C13.4692 12.9999 13.9991 12.7804 14.3898 12.3897C14.7805 11.999 15 11.4691 15 10.9166V5.35825C14.4437 5.16166 13.9749 4.77475 13.6763 4.26591C13.3778 3.75707 13.2687 3.15907 13.3685 2.57759C13.4682 1.99612 13.7703 1.46863 14.2213 1.08836C14.6724 0.708082 15.2434 0.499512 15.8333 0.499512C16.4233 0.499512 16.9942 0.708082 17.4453 1.08836C17.8963 1.46863 18.1984 1.99612 18.2982 2.57759C18.3979 3.15907 18.2888 3.75707 17.9903 4.26591C17.6917 4.77475 17.2229 5.16166 16.6666 5.35825V10.9166C16.6666 11.9111 16.2716 12.865 15.5683 13.5682C14.865 14.2715 13.9112 14.6666 12.9166 14.6666C11.9221 14.6666 10.9683 14.2715 10.265 13.5682C9.56173 12.865 9.16665 11.9111 9.16665 10.9166V5.08325C9.16665 4.53072 8.94715 4.00081 8.55645 3.61011C8.16575 3.21941 7.63585 2.99992 7.08331 2.99992C6.53078 2.99992 6.00087 3.21941 5.61017 3.61011C5.21947 4.00081 4.99998 4.53072 4.99998 5.08325V10.4999H7.49998L4.16665 14.6666L0.833313 10.4999H3.33331ZM15.8333 3.83325C16.0543 3.83325 16.2663 3.74545 16.4226 3.58917C16.5788 3.43289 16.6666 3.22093 16.6666 2.99992C16.6666 2.7789 16.5788 2.56694 16.4226 2.41066C16.2663 2.25438 16.0543 2.16658 15.8333 2.16658C15.6123 2.16658 15.4003 2.25438 15.2441 2.41066C15.0878 2.56694 15 2.7789 15 2.99992C15 3.22093 15.0878 3.43289 15.2441 3.58917C15.4003 3.74545 15.6123 3.83325 15.8333 3.83325Z" fill="#5243C2"/>
</svg>
